<?xml version="1.0" encoding="UTF-8" standalone="no"?>
<!DOCTYPE svg PUBLIC "-//W3C//DTD SVG 1.1//EN" "http://www.w3.org/Graphics/SVG/1.1/DTD/svg11.dtd">
<svg width="170" height="21" viewBox="0 0 289 36" version="1.1" xmlns="http://www.w3.org/2000/svg" xmlns:xlink="http://www.w3.org/1999/xlink" xml:space="preserve" xmlns:serif="http://www.serif.com/" style="fill-rule:evenodd;clip-rule:evenodd;stroke-linejoin:round;stroke-miterlimit:2;">
    <path d="M41.603,5.802C38.134,2.132 33.186,0 28.033,0C26.655,0 25.329,0.149 24.053,0.446L24.053,0.397L23.645,0.496C22.268,0.149 20.839,0 19.36,0C14.258,0 9.258,2.132 5.789,5.802C2.269,9.521 0.535,14.38 0.943,19.488C1.708,28.711 9.82,36 19.36,36L27.982,36C32.624,36 37.114,34.314 40.532,31.24C43.95,28.165 46.093,24 46.45,19.488C46.858,14.38 45.175,9.521 41.603,5.802ZM23.696,3.025C30.584,4.909 35.379,11.008 35.379,18C35.379,24.942 30.584,31.091 23.696,32.926C16.809,31.091 12.013,24.942 12.013,18C12.013,11.008 16.809,4.909 23.696,3.025ZM18.34,2.628C18.187,2.727 18.033,2.777 17.88,2.876C17.727,2.975 17.574,3.074 17.421,3.174L17.064,3.471C17.013,3.471 16.962,3.521 16.962,3.57C16.809,3.669 16.656,3.818 16.503,3.917C16.197,4.165 15.84,4.413 15.483,4.76C15.381,4.86 15.227,5.008 15.125,5.107C14.921,5.306 14.717,5.504 14.513,5.752L14.156,6.05C14.105,6.099 14.054,6.149 14.003,6.248C13.952,6.298 13.85,6.397 13.799,6.496L13.697,6.595C13.442,6.942 13.136,7.289 12.83,7.686C12.575,8.033 12.32,8.43 12.064,8.826C11.911,9.025 11.809,9.273 11.707,9.471C11.605,9.669 11.452,9.917 11.35,10.116C11.248,10.314 11.146,10.562 11.044,10.81C10.942,11.008 10.84,11.207 10.789,11.405C10.636,11.802 10.483,12.149 10.381,12.496C10.279,12.744 10.228,12.942 10.177,13.19C10.126,13.339 10.075,13.488 10.075,13.587C10.024,13.835 9.973,14.083 9.922,14.281L9.922,14.331C9.871,14.529 9.871,14.678 9.82,14.876C9.769,15.025 9.769,15.174 9.769,15.322L9.769,15.471C9.718,15.62 9.718,15.769 9.718,15.917C9.718,16.066 9.667,16.265 9.667,16.463L9.667,16.562C9.667,16.81 9.616,17.058 9.616,17.306L9.616,18.793C9.616,19.041 9.667,19.289 9.667,19.488L9.667,19.686C9.667,19.835 9.718,20.033 9.718,20.182C9.718,20.38 9.769,20.529 9.769,20.678C9.769,20.876 9.82,21.025 9.871,21.174C9.871,21.273 9.922,21.422 9.922,21.521L9.973,21.719L10.483,21.62L10.024,21.769C10.075,22.017 10.126,22.215 10.177,22.463C10.228,22.562 10.228,22.711 10.279,22.81C10.381,23.107 10.483,23.455 10.585,23.752C10.687,24.05 10.789,24.347 10.942,24.645C10.993,24.793 11.044,24.893 11.095,25.041L11.248,25.339C11.299,25.488 11.401,25.686 11.503,25.835L11.554,25.934C11.656,26.132 11.758,26.38 11.911,26.578C12.013,26.777 12.166,27.025 12.269,27.223C12.626,27.868 13.085,28.463 13.544,29.008C13.646,29.157 13.799,29.306 13.901,29.455C14.003,29.554 14.105,29.653 14.207,29.802C14.258,29.851 14.309,29.95 14.36,30C14.462,30.099 14.564,30.198 14.666,30.347C14.768,30.446 14.921,30.595 15.023,30.694C15.177,30.843 15.33,30.992 15.483,31.141C15.993,31.636 16.554,32.083 17.166,32.529C17.319,32.678 17.523,32.777 17.676,32.876C17.829,32.975 18.033,33.124 18.187,33.223L18.238,33.273C18.391,33.372 18.493,33.422 18.646,33.521L18.697,33.57C10.738,33.174 4.157,27.124 3.545,19.339C3.085,14.876 4.565,10.661 7.626,7.438C10.483,4.463 14.411,2.628 18.595,2.479C18.544,2.529 18.442,2.579 18.34,2.628ZM37.879,18C37.879,11.554 34.359,5.702 28.747,2.479C32.93,2.678 36.91,4.463 39.716,7.438C42.777,10.661 44.256,14.876 43.899,19.24C43.236,27.025 36.706,33.074 28.747,33.471C34.359,30.298 37.879,24.397 37.879,18Z" style="fill:rgb(45,46,130);fill-rule:nonzero;"/>
    <path d="M108.538,6.694C107.365,6.694 106.497,5.851 106.497,4.711C106.497,3.62 107.365,2.727 108.538,2.727C109.712,2.727 110.579,3.57 110.579,4.711C110.579,5.851 109.661,6.694 108.538,6.694Z" style="fill:rgb(45,46,130);fill-rule:nonzero;"/>
    <path d="M106.753,11.058C106.753,10.711 106.804,10.612 107.161,10.512C107.569,10.463 108.028,10.413 108.487,10.413C108.946,10.413 109.354,10.413 109.814,10.512C110.171,10.562 110.222,10.711 110.222,11.058L110.222,27.471C110.222,27.818 110.171,27.917 109.814,28.017C109.405,28.066 108.946,28.116 108.487,28.116C108.028,28.116 107.62,28.116 107.161,28.017C106.804,27.967 106.753,27.818 106.753,27.471L106.753,11.058Z" style="fill:rgb(45,46,130);fill-rule:nonzero;"/>
    <path d="M101.345,27.471L101.345,17.603C101.345,12.496 98.794,10.314 94.457,10.314C90.988,10.314 89.56,11.554 88.795,12.298C88.641,12.397 88.59,12.397 88.488,12.397L88.386,12.397C88.182,12.397 88.08,12.397 88.08,12.198L87.927,10.959C87.876,10.612 87.723,10.562 87.366,10.512C86.958,10.463 86.601,10.463 86.193,10.463C85.784,10.463 85.376,10.463 85.019,10.512C84.611,10.562 84.56,10.711 84.56,11.058L84.56,27.422C84.56,27.769 84.611,27.917 84.968,27.967C85.427,28.066 85.836,28.066 86.295,28.066C86.754,28.066 87.213,28.017 87.621,27.967C87.978,27.868 88.029,27.769 88.029,27.422L88.029,19.041C88.029,15.174 89.764,12.942 93.233,12.942C96.804,12.942 97.876,14.777 97.876,18.347L97.876,27.471C97.876,27.818 97.927,27.967 98.284,28.017C98.743,28.116 99.151,28.116 99.61,28.116C100.069,28.116 100.528,28.066 100.937,28.017C101.294,27.917 101.345,27.818 101.345,27.471Z" style="fill:rgb(45,46,130);fill-rule:nonzero;"/>
    <path d="M75.683,19.488C75.683,23.504 74.357,25.587 70.531,25.587C67.112,25.587 66.041,23.851 66.041,20.43L66.041,11.058C66.041,10.711 65.99,10.562 65.633,10.512C65.174,10.413 64.766,10.413 64.306,10.413C63.847,10.413 63.388,10.463 62.98,10.512C62.623,10.612 62.572,10.711 62.572,11.058L62.572,21.273C62.572,26.38 65.48,28.265 69.612,28.265C72.928,28.265 74.459,26.827 74.867,26.43C75.02,26.281 75.071,26.281 75.275,26.281L75.377,26.281C75.581,26.281 75.632,26.331 75.683,26.479L75.887,27.521C75.938,27.868 76.04,27.917 76.397,27.967C76.754,28.066 77.112,28.066 77.571,28.066C77.988,28.066 78.279,28.025 78.596,27.981L78.693,27.967C79.101,27.868 79.152,27.818 79.152,27.422L79.152,11.058C79.152,10.711 79.101,10.562 78.744,10.512C78.285,10.413 77.877,10.413 77.418,10.413C76.959,10.413 76.5,10.463 76.091,10.512C75.734,10.612 75.683,10.711 75.683,11.058L75.683,19.488Z" style="fill:rgb(45,46,130);fill-rule:nonzero;"/>
    <path d="M125.323,10.512L119.864,10.512C119.609,10.512 119.507,10.413 119.507,10.215L119.507,6.099C119.507,5.752 119.456,5.603 119.099,5.554C118.64,5.455 118.231,5.455 117.772,5.455C117.313,5.455 116.854,5.504 116.446,5.554C116.089,5.653 116.038,5.752 116.038,6.099L116.038,22.165C116.038,26.38 118.487,28.066 122.415,28.066C124.354,28.066 125.323,27.868 125.884,27.719C126.19,27.669 126.241,27.57 126.292,27.273L126.292,26.777C126.292,26.331 126.241,25.884 126.19,25.537C126.139,25.289 126.037,25.141 125.833,25.141L125.68,25.141C125.272,25.24 124.251,25.438 123.078,25.438C120.731,25.438 119.456,24.893 119.456,21.818L119.456,13.537C119.456,13.339 119.609,13.19 119.864,13.19L125.323,13.19C125.629,13.19 125.731,13.141 125.782,12.843C125.833,12.595 125.833,12.198 125.833,11.851C125.833,11.504 125.833,11.157 125.782,10.86C125.731,10.612 125.629,10.512 125.323,10.512Z" style="fill:rgb(45,46,130);fill-rule:nonzero;"/>
    <path d="M132.006,20.777C132.261,24.496 135.271,25.587 138.894,25.587C141.726,25.587 144.208,24.709 144.797,24.501L144.812,24.496C144.871,24.496 144.914,24.479 144.949,24.465C144.973,24.455 144.994,24.446 145.016,24.446C145.22,24.446 145.322,24.546 145.373,24.793C145.475,25.24 145.526,25.835 145.526,26.38C145.526,26.926 145.526,27.025 145.067,27.223C144.454,27.521 142.159,28.265 138.791,28.265C132.669,28.265 128.333,26.083 128.333,19.24C128.333,13.736 131.088,10.215 137.567,10.215C143.587,10.215 146.75,13.041 146.75,18.546C146.75,19.141 146.699,19.636 146.648,19.934C146.597,20.281 146.495,20.331 146.138,20.331L132.414,20.331C132.108,20.38 132.006,20.479 132.006,20.777ZM131.955,17.653C131.955,17.851 132.057,17.95 132.363,17.95L142.822,17.95C143.128,17.95 143.23,17.851 143.23,17.554C143.23,14.38 141.291,12.694 137.72,12.694C134.149,12.694 132.21,14.281 132.006,17.554L132.006,17.653L131.955,17.653Z" style="fill:rgb(45,46,130);"/>
    <path d="M164.657,26.43L164.81,26.43C164.963,26.43 165.065,26.479 165.116,26.578L165.32,27.521C165.422,27.868 165.474,27.917 165.831,27.967C166.188,28.066 166.596,28.066 167.004,28.066C167.421,28.066 167.712,28.025 168.029,27.981L168.126,27.967C168.535,27.868 168.586,27.818 168.586,27.422L168.586,3.471C168.586,3.124 168.535,2.975 168.177,2.926C167.718,2.826 167.31,2.826 166.851,2.826C166.392,2.826 165.933,2.876 165.525,2.926C165.167,3.025 165.116,3.124 165.116,3.471L165.116,11.653C165.116,11.851 165.065,11.901 164.861,11.901L164.708,11.901C164.555,11.901 164.504,11.901 164.351,11.802C164.292,11.763 164.225,11.717 164.151,11.665C163.459,11.184 162.065,10.215 158.841,10.215C154.148,10.215 150.27,12.793 150.27,19.389C150.27,26.033 154.199,28.265 158.994,28.265C162.335,28.265 163.7,27.059 164.223,26.597L164.265,26.559C164.277,26.549 164.289,26.539 164.3,26.529C164.402,26.43 164.453,26.43 164.657,26.43ZM159.607,25.736C155.27,25.736 153.74,23.256 153.74,19.289C153.74,15.322 155.219,12.793 159.607,12.843C163.943,12.843 165.474,15.322 165.474,19.289C165.474,23.256 163.943,25.736 159.607,25.736Z" style="fill:rgb(45,46,130);"/>
    <path d="M181.595,19.289C181.595,23.603 183.789,25.686 187.921,25.686C190.742,25.686 192.712,24.989 193.536,24.698C193.591,24.678 193.641,24.66 193.686,24.645C193.746,24.645 193.788,24.628 193.823,24.613C193.848,24.604 193.869,24.595 193.89,24.595C194.094,24.595 194.196,24.694 194.247,24.942C194.349,25.389 194.4,25.934 194.4,26.43C194.4,26.975 194.4,27.074 193.941,27.273C193.227,27.57 190.778,28.314 187.921,28.314C181.85,28.314 178.075,25.587 178.075,19.289C178.075,12.992 181.85,10.265 187.921,10.265C190.778,10.265 193.227,10.959 193.941,11.306C194.4,11.504 194.4,11.603 194.4,12.149C194.4,12.645 194.349,13.19 194.247,13.636C194.196,13.884 194.094,13.983 193.89,13.983C193.839,13.983 193.737,13.983 193.686,13.934L193.633,13.917L193.571,13.896C193.523,13.88 193.472,13.862 193.417,13.844C192.509,13.534 190.627,12.893 187.921,12.893C183.789,12.893 181.595,14.926 181.595,19.289Z" style="fill:rgb(45,46,130);fill-rule:nonzero;"/>
    <path d="M207.104,10.265C200.777,10.265 197.665,13.537 197.665,19.289C197.665,25.041 200.828,28.265 207.104,28.314C213.43,28.314 216.542,25.041 216.542,19.289C216.542,13.537 213.43,10.265 207.104,10.265ZM207.104,12.843C211.542,12.843 213.073,15.372 213.073,19.289C213.073,23.207 211.542,25.736 207.104,25.736C202.665,25.736 201.135,23.207 201.135,19.289C201.135,15.372 202.665,12.843 207.104,12.843Z" style="fill:rgb(45,46,130);"/>
    <path d="M234.398,26.43L234.245,26.43C234.041,26.43 233.99,26.43 233.887,26.529L233.855,26.558L233.81,26.597C233.287,27.059 231.923,28.265 228.582,28.265C223.786,28.265 219.858,26.033 219.858,19.389C219.858,12.793 223.735,10.215 228.429,10.215C231.652,10.215 233.047,11.184 233.738,11.665C233.812,11.717 233.879,11.763 233.938,11.802C234.092,11.901 234.143,11.901 234.296,11.901L234.449,11.901C234.653,11.901 234.704,11.851 234.704,11.653L234.704,3.471C234.704,3.124 234.755,3.025 235.112,2.926C235.52,2.876 235.979,2.826 236.438,2.826C236.897,2.826 237.306,2.826 237.765,2.926C238.122,2.975 238.173,3.124 238.173,3.471L238.173,27.422C238.173,27.818 238.122,27.868 237.714,27.967L237.617,27.981C237.299,28.025 237.008,28.066 236.591,28.066C236.183,28.066 235.775,28.066 235.418,27.967C235.061,27.917 235.01,27.868 234.908,27.521L234.704,26.578C234.653,26.479 234.602,26.43 234.398,26.43ZM223.327,19.289C223.327,23.256 224.857,25.736 229.194,25.736C233.53,25.736 235.061,23.256 235.061,19.289C235.061,15.322 233.53,12.843 229.194,12.843C224.857,12.793 223.327,15.322 223.327,19.289Z" style="fill:rgb(45,46,130);"/>
    <path d="M253.07,25.587C249.448,25.587 246.438,24.496 246.183,20.777C246.183,20.479 246.285,20.38 246.591,20.331L260.314,20.331C260.672,20.331 260.774,20.281 260.825,19.934C260.876,19.636 260.927,19.141 260.927,18.546C260.927,13.041 257.764,10.215 251.744,10.215C245.264,10.215 242.509,13.736 242.509,19.24C242.509,26.083 246.846,28.265 252.968,28.265C256.335,28.265 258.631,27.521 259.243,27.223C259.702,27.025 259.702,26.926 259.702,26.38C259.702,25.835 259.651,25.24 259.549,24.793C259.498,24.546 259.396,24.446 259.192,24.446C259.171,24.446 259.15,24.455 259.125,24.465C259.09,24.479 259.048,24.496 258.988,24.496L258.973,24.501C258.384,24.709 255.903,25.587 253.07,25.587ZM246.54,17.95C246.234,17.95 246.132,17.851 246.132,17.653L246.183,17.653L246.183,17.554C246.387,14.281 248.325,12.694 251.897,12.694C255.468,12.694 257.406,14.38 257.406,17.554C257.406,17.851 257.304,17.95 256.998,17.95L246.54,17.95Z" style="fill:rgb(45,46,130);"/>
    <path d="M272.967,12.744C270.671,12.744 268.375,13.141 268.375,15.025C268.375,16.711 270.008,16.959 273.375,17.455C278.119,18.198 281.129,18.942 281.129,22.959C281.129,27.372 276.589,28.265 272.456,28.265C269.395,28.265 266.283,27.719 265.263,27.372C264.906,27.273 264.855,27.174 264.804,26.827C264.753,26.281 264.753,25.488 264.957,24.893C265.059,24.546 265.212,24.546 265.569,24.595C266.589,24.893 269.395,25.636 272.61,25.636C275.109,25.636 277.66,25.339 277.66,23.157C277.66,21.62 276.793,21.124 273.018,20.529C268.477,19.884 264.957,19.19 264.957,15.223C264.957,10.909 269.395,10.165 273.324,10.165C276.436,10.165 279.089,10.86 279.65,11.058C279.956,11.157 280.058,11.256 280.058,11.554L280.058,12C280.058,12.446 280.007,12.992 279.905,13.339C279.854,13.537 279.752,13.636 279.599,13.636C279.548,13.636 279.446,13.636 279.344,13.587C279.188,13.587 278.781,13.509 278.216,13.4C276.926,13.151 274.811,12.744 272.967,12.744Z" style="fill:rgb(45,46,130);fill-rule:nonzero;"/>
    <path d="M285.619,26.926C285.619,26.975 285.619,26.975 285.67,26.975C285.721,26.975 285.823,26.975 285.823,27.025L286.027,27.025C286.053,27.025 286.065,27.025 286.072,27.019C286.078,27.012 286.078,27 286.078,26.975L286.078,26.38C286.078,26.331 286.078,26.331 286.129,26.331L286.639,26.331C286.69,26.331 286.69,26.331 286.741,26.38L287.2,26.975C287.251,27.025 287.251,27.025 287.302,27.025L287.762,27.025C287.864,27.025 287.864,26.975 287.813,26.926L287.251,26.231C287.2,26.231 287.251,26.182 287.251,26.182C287.456,26.033 287.66,25.884 287.66,25.488C287.66,24.942 287.302,24.694 286.69,24.694L285.721,24.694C285.67,24.694 285.619,24.744 285.619,24.793L285.619,26.926ZM286.537,25.041C286.894,25.041 287.2,25.091 287.2,25.488C287.2,25.884 286.894,25.934 286.537,25.934L286.18,25.934C286.129,25.934 286.129,25.934 286.129,25.884L286.129,25.091C286.129,25.041 286.129,25.041 286.18,25.041L286.537,25.041Z" style="fill:rgb(45,46,130);"/>
    <path d="M288.884,25.934C288.884,24.546 287.966,23.752 286.588,23.752C285.211,23.752 284.292,24.546 284.292,25.934C284.292,27.322 285.211,28.116 286.588,28.116C287.966,28.116 288.884,27.322 288.884,25.934ZM288.425,25.934C288.425,27.074 287.762,27.719 286.588,27.719C285.466,27.719 284.752,27.074 284.752,25.934C284.752,24.793 285.415,24.149 286.588,24.149C287.711,24.149 288.425,24.793 288.425,25.934Z" style="fill:rgb(45,46,130);"/>
</svg>
